<svg xmlns="http://www.w3.org/2000/svg" version="1.1" xmlns:xlink="http://www.w3.org/1999/xlink" xmlns:svgjs="http://svgjs.com/svgjs" width="512" height="512" x="0" y="0" viewBox="0 0 6.35 6.35" style="enable-background:new 0 0 512 512" xml:space="preserve" class=""><g><path d="M.39 3.344a2.793 2.793 0 0 0 2.955 2.614A2.795 2.795 0 0 0 5.96 3.002a2.781 2.781 0 0 0-.95-1.925l.427-.082c.33-.053.278-.542-.077-.523L4.235.688a.265.265 0 0 0-.21.31L4.237 2.1c.054.364.604.26.52-.1l-.102-.534A2.257 2.257 0 0 1 3.314 5.43 2.256 2.256 0 0 1 .919 3.311 2.256 2.256 0 0 1 3.037.917C3.38.895 3.36.382 3.01.387A2.797 2.797 0 0 0 .39 3.344z" paint-order="stroke fill markers" fill="#ffffff" data-original="#000000" class=""></path></g></svg>